<svg width="53" height="50" viewBox="0 0 53 50" fill="none" xmlns="http://www.w3.org/2000/svg">
<path d="M6.62504 10.4167V9.375C6.01523 9.375 5.52087 9.84137 5.52087 10.4167H6.62504ZM46.375 10.4167H47.4792C47.4792 9.84137 46.9848 9.375 46.375 9.375V10.4167ZM6.62504 11.4583H46.375V9.375H6.62504V11.4583ZM45.2709 10.4167V35.4167H47.4792V10.4167H45.2709ZM41.9584 38.5417H11.0417V40.625H41.9584V38.5417ZM7.72921 35.4167V10.4167H5.52087V35.4167H7.72921ZM11.0417 38.5417C9.21226 38.5417 7.72921 37.1425 7.72921 35.4167H5.52087C5.52087 38.2931 7.99264 40.625 11.0417 40.625V38.5417ZM45.2709 35.4167C45.2709 37.1425 43.7878 38.5417 41.9584 38.5417V40.625C45.0074 40.625 47.4792 38.2931 47.4792 35.4167H45.2709Z" fill="#F4C9D6"/>
<path d="M6.62504 9.375V10.4167H5.52087M6.62504 9.375C6.01523 9.375 5.52087 9.84137 5.52087 10.4167M6.62504 9.375H46.375M6.62504 9.375V11.4583H46.375V9.375M5.52087 10.4167H7.72921V35.4167M5.52087 10.4167V35.4167M47.4792 10.4167H46.375V9.375M47.4792 10.4167C47.4792 9.84137 46.9848 9.375 46.375 9.375M47.4792 10.4167V35.4167M47.4792 10.4167H45.2709V35.4167M45.2709 35.4167H47.4792M45.2709 35.4167C45.2709 37.1425 43.7878 38.5417 41.9584 38.5417M47.4792 35.4167C47.4792 38.2931 45.0074 40.625 41.9584 40.625M41.9584 38.5417H11.0417M41.9584 38.5417V40.625M11.0417 38.5417V40.625M11.0417 38.5417C9.21226 38.5417 7.72921 37.1425 7.72921 35.4167M11.0417 40.625H41.9584M11.0417 40.625C7.99264 40.625 5.52087 38.2931 5.52087 35.4167M7.72921 35.4167H5.52087" stroke="#F4C9D6"/>
<path d="M6.625 10.4167L26.5 29.1667L46.375 10.4167" stroke="#F4C9D6" stroke-linecap="round" stroke-linejoin="round"/>
</svg>
