<svg width="48" height="50" viewBox="0 0 48 50" fill="none" xmlns="http://www.w3.org/2000/svg">
<path d="M18 39.5834C9.4 42.5 9.4 34.375 6 33.3334M30 43.75V36.4584C30 34.375 30.2 33.5417 29 32.2917C34.6 31.6667 40 29.375 40 19.7917C39.9976 17.302 39.0651 14.9111 37.4 13.125C38.1809 10.9624 38.109 8.56591 37.2 6.45835C37.2 6.45835 35 5.83335 30.2 9.16669C26.1345 8.06374 21.8655 8.06374 17.8 9.16669C13 5.83335 10.8 6.45835 10.8 6.45835C9.89096 8.56591 9.81907 10.9624 10.6 13.125C8.93491 14.9111 8.00244 17.302 8 19.7917C8 29.375 13.4 31.6667 19 32.2917C17.8 33.5417 17.8 34.7917 18 36.4584V43.75" stroke="#3E2723" stroke-width="2" stroke-linecap="round" stroke-linejoin="round"/>
</svg>
