<svg width="100" height="100" viewBox="0 0 100 100" fill="none" xmlns="http://www.w3.org/2000/svg">
<circle cx="50" cy="50" r="50" fill="#F4C9D6"/>
<path d="M46.4688 31.875V66H40.6094V36.5625H25.4453V66H19.5859V31.875H46.4688ZM66.3438 50.5781H57.6484L57.6016 46.2891H65.1953C66.4766 46.2891 67.5625 46.1016 68.4531 45.7266C69.3594 45.3359 70.0469 44.7812 70.5156 44.0625C70.9844 43.3281 71.2188 42.4453 71.2188 41.4141C71.2188 40.2734 71 39.3438 70.5625 38.625C70.125 37.9062 69.4531 37.3828 68.5469 37.0547C67.6562 36.7266 66.5156 36.5625 65.125 36.5625H59.4297V66H53.5469V31.875H65.125C67 31.875 68.6719 32.0547 70.1406 32.4141C71.625 32.7734 72.8828 33.3359 73.9141 34.1016C74.9609 34.8516 75.75 35.8047 76.2812 36.9609C76.8281 38.1172 77.1016 39.4922 77.1016 41.0859C77.1016 42.4922 76.7656 43.7812 76.0938 44.9531C75.4219 46.1094 74.4297 47.0547 73.1172 47.7891C71.8047 48.5234 70.1719 48.9609 68.2188 49.1016L66.3438 50.5781ZM66.0859 66H55.7969L58.4453 61.3359H66.0859C67.4141 61.3359 68.5234 61.1172 69.4141 60.6797C70.3047 60.2266 70.9688 59.6094 71.4062 58.8281C71.8594 58.0312 72.0859 57.1016 72.0859 56.0391C72.0859 54.9297 71.8906 53.9688 71.5 53.1562C71.1094 52.3281 70.4922 51.6953 69.6484 51.2578C68.8047 50.8047 67.7031 50.5781 66.3438 50.5781H59.7344L59.7812 46.2891H68.3828L69.7188 47.9062C71.5938 47.9688 73.1328 48.3828 74.3359 49.1484C75.5547 49.9141 76.4609 50.9062 77.0547 52.125C77.6484 53.3438 77.9453 54.6562 77.9453 56.0625C77.9453 58.2344 77.4688 60.0547 76.5156 61.5234C75.5781 62.9922 74.2266 64.1094 72.4609 64.875C70.6953 65.625 68.5703 66 66.0859 66Z" fill="#3E2723"/>
</svg>
